<?xml version="1.0" encoding="iso-8859-1"?>
<!-- Generator: Adobe Illustrator 23.0.2, SVG Export Plug-In . SVG Version: 6.00 Build 0)  -->
<svg version="1.1" id="Layer_1" xmlns="http://www.w3.org/2000/svg" xmlns:xlink="http://www.w3.org/1999/xlink" x="0px" y="0px"
	 viewBox="0 0 640 640" style="enable-background:new 0 0 640 640;" xml:space="preserve">
<g>
</g>
<g>
</g>
<g>
</g>
<g>
</g>
<g>
	<polygon style="fill:#9F9F9F;" points="568.402,286.674 572.41,401.756 311.52,389.005 307.512,273.922 	"/>
</g>
<g style="enable-background:new    ;">
	<defs>
		<path id="SVGID_1_" style="enable-background:new    ;" d="M570.721,263.282l4.007,115.083c0.259,7.438-0.534,15.117-2.319,23.391
			l-4.008-115.083C570.187,278.399,570.98,270.721,570.721,263.282z"/>
	</defs>
	<clipPath id="SVGID_2_">
		<use xlink:href="#SVGID_1_"  style="overflow:visible;"/>
	</clipPath>
	<g style="clip-path:url(#SVGID_2_);enable-background:new    ;">
		<path style="fill:#8F8F8F;" d="M570.721,263.282l4.007,115.083c0.025,0.72,0.04,1.443,0.046,2.168l-4.007-115.083
			C570.761,264.725,570.746,264.003,570.721,263.282"/>
		<path style="fill:#939393;" d="M570.767,265.45l4.007,115.083c0.038,5.085-0.407,10.297-1.315,15.748l-4.007-115.083
			C570.36,275.748,570.805,270.536,570.767,265.45"/>
		<path style="fill:#969696;" d="M569.452,281.198l4.007,115.083c-0.3,1.798-0.65,3.622-1.049,5.476l-4.008-115.083
			C568.802,284.82,569.152,282.996,569.452,281.198"/>
	</g>
</g>
<g>
	<path style="fill:#F07D2E;" d="M57.286,326.237c-44.526-78.601,31.431-165.728,169.619-194.616
		c19.437-4.063,39.08-6.758,58.593-8.169c119.245-8.625,234.006,30.634,272.268,98.168c12.702,22.405,15.765,41.264,10.635,65.053
		l-260.89-12.751L57.286,326.237z"/>
</g>
<g style="enable-background:new    ;">
	<defs>
		<path id="SVGID_3_" style="enable-background:new    ;" d="M48.61,398.142L44.603,283.06c0.502,14.408,4.614,28.933,12.683,43.178
			l4.007,115.083C53.224,427.075,49.112,412.55,48.61,398.142z"/>
	</defs>
	<use xlink:href="#SVGID_3_"  style="overflow:visible;fill:#F07D2E;"/>
	<clipPath id="SVGID_4_">
		<use xlink:href="#SVGID_3_"  style="overflow:visible;"/>
	</clipPath>
	<g style="clip-path:url(#SVGID_4_);enable-background:new    ;">
		<path style="fill:#F07D2E;" d="M57.286,326.237l4.007,115.083c-8.069-14.245-12.182-28.77-12.683-43.178L44.603,283.06
			C45.105,297.467,49.217,311.992,57.286,326.237"/>
	</g>
</g>
<g>
	<polygon style="fill:#ADADAD;" points="307.512,273.922 311.52,389.005 61.294,441.32 57.286,326.237 	"/>
</g>
<g style="enable-background:new    ;">
	<defs>
		<path id="SVGID_5_" style="enable-background:new    ;" d="M568.402,286.674l4.007,115.083
			c-10.332,47.646-54.863,87.99-126.042,114.152l-4.008-115.083C513.54,374.664,558.07,334.32,568.402,286.674z"/>
	</defs>
	<use xlink:href="#SVGID_5_"  style="overflow:visible;fill:#AC55A1;"/>
	<clipPath id="SVGID_6_">
		<use xlink:href="#SVGID_5_"  style="overflow:visible;"/>
	</clipPath>
	<g style="clip-path:url(#SVGID_6_);enable-background:new    ;">
		<path style="fill:#AC55A1;" d="M568.402,286.674l4.008,115.083c-0.845,3.897-1.919,7.746-3.218,11.542l-4.007-115.083
			C566.483,294.42,567.557,290.571,568.402,286.674"/>
		<path style="fill:#AC55A1;" d="M565.185,298.216l4.007,115.083c-1.857,5.427-4.173,10.747-6.936,15.948l-4.007-115.083
			C561.012,308.963,563.328,303.643,565.185,298.216"/>
		<path style="fill:#AC55A1;" d="M558.248,314.164l4.007,115.083c-2.982,5.612-6.484,11.086-10.492,16.408l-4.007-115.083
			C551.764,325.249,555.267,319.776,558.248,314.164"/>
		<path style="fill:#AC55A1;" d="M547.756,330.571l4.007,115.083c-4.795,6.368-10.314,12.518-16.531,18.427l-4.007-115.083
			C537.442,343.09,542.961,336.939,547.756,330.571"/>
		<path style="fill:#AC55A1;" d="M531.225,348.999l4.007,115.083c-11.786,11.203-26.079,21.539-42.702,30.847l-4.007-115.083
			C505.147,370.537,519.44,360.201,531.225,348.999"/>
		<path style="fill:#AC55A1;" d="M488.523,379.845l4.007,115.083c-8.204,4.594-16.976,8.937-26.294,13.011l-4.007-115.083
			C471.547,388.783,480.319,384.439,488.523,379.845"/>
		<path style="fill:#AC55A1;" d="M462.229,392.856l4.007,115.083c-6.37,2.785-12.995,5.443-19.868,7.97l-4.007-115.083
			C449.234,398.3,455.859,395.641,462.229,392.856"/>
	</g>
</g>
<g>
	<path style="fill:#9E248F;" d="M442.36,400.826L307.512,273.922l260.89,12.751C558.07,334.32,513.54,374.664,442.36,400.826z"/>
</g>
<g>
	<polygon style="fill:#511349;" points="442.36,400.826 446.368,515.909 311.52,389.005 307.512,273.922 	"/>
</g>
<g>
	<polygon style="fill:#404040;" points="329.764,424.357 333.772,539.44 311.52,389.005 307.512,273.922 	"/>
</g>
<g style="enable-background:new    ;">
	<defs>
		<path id="SVGID_7_" style="enable-background:new    ;" d="M456.121,443.54l4.007,115.083
			c-35.537,13.069-71.353,20.548-112.596,23.531l-4.008-115.083C384.768,464.088,420.584,456.609,456.121,443.54z"/>
	</defs>
	<use xlink:href="#SVGID_7_"  style="overflow:visible;fill:#A31E22;"/>
	<clipPath id="SVGID_8_">
		<use xlink:href="#SVGID_7_"  style="overflow:visible;"/>
	</clipPath>
	<g style="clip-path:url(#SVGID_8_);enable-background:new    ;">
		<path style="fill:#A31E22;" d="M456.121,443.54l4.007,115.083c-14.218,5.229-28.481,9.563-43.118,13.072l-4.007-115.083
			C427.64,453.103,441.903,448.769,456.121,443.54"/>
		<path style="fill:#A31E22;" d="M413.003,456.612l4.007,115.083c-10.765,2.581-21.732,4.716-33.033,6.432l-4.007-115.083
			C391.27,461.328,402.238,459.193,413.003,456.612"/>
		<path style="fill:#A31E22;" d="M379.969,463.044l4.007,115.083c-9.916,1.506-20.089,2.69-30.608,3.571l-4.007-115.083
			C359.88,465.735,370.053,464.551,379.969,463.044"/>
		<path style="fill:#A31E22;" d="M349.362,466.616l4.007,115.083c-1.934,0.162-3.879,0.314-5.837,0.455l-4.007-115.083
			C345.482,466.93,347.428,466.778,349.362,466.616"/>
	</g>
</g>
<g>
	<path style="fill:#EE3024;" d="M343.525,467.071l-22.252-150.435L456.121,443.54C420.584,456.609,384.768,464.088,343.525,467.071z
		"/>
</g>
<g style="enable-background:new    ;">
	<defs>
		<path id="SVGID_9_" style="enable-background:new    ;" d="M329.764,424.357l4.007,115.083
			c-123.974,8.967-234.324-30.767-272.478-98.12l-4.007-115.083C95.44,393.59,205.79,433.325,329.764,424.357z"/>
	</defs>
	<use xlink:href="#SVGID_9_"  style="overflow:visible;fill:#107BA3;"/>
	<clipPath id="SVGID_10_">
		<use xlink:href="#SVGID_9_"  style="overflow:visible;"/>
	</clipPath>
	<g style="clip-path:url(#SVGID_10_);enable-background:new    ;">
		<path style="fill:#107BA3;" d="M329.764,424.357l4.007,115.083c-7.876,0.57-15.698,0.943-23.449,1.125l-4.007-115.083
			C314.067,425.3,321.888,424.927,329.764,424.357"/>
		<path style="fill:#107BA3;" d="M306.315,425.482l4.007,115.083c-9.14,0.215-18.182,0.163-27.102-0.145l-4.007-115.083
			C288.133,425.645,297.176,425.697,306.315,425.482"/>
		<path style="fill:#107BA3;" d="M279.213,425.337l4.007,115.083c-8.9-0.307-17.679-0.871-26.312-1.681l-4.007-115.083
			C261.534,424.467,270.313,425.03,279.213,425.337"/>
		<path style="fill:#107BA3;" d="M252.901,423.656l4.007,115.083c-8.986-0.843-17.815-1.954-26.457-3.323l-4.007-115.083
			C235.086,421.702,243.914,422.813,252.901,423.656"/>
		<path style="fill:#107BA3;" d="M226.443,420.334l4.007,115.083c-9.58-1.517-18.932-3.351-28.018-5.487l-4.007-115.083
			C207.511,416.983,216.863,418.817,226.443,420.334"/>
		<path style="fill:#107BA3;" d="M198.425,414.846l4.007,115.083c-11.107-2.612-21.817-5.676-32.061-9.169l-4.007-115.083
			C176.608,409.17,187.318,412.235,198.425,414.846"/>
		<path style="fill:#107BA3;" d="M166.364,405.677l4.007,115.083c-50.276-17.141-89.339-44.594-109.078-79.44l-4.007-115.083
			C77.026,361.083,116.088,388.536,166.364,405.677"/>
	</g>
</g>
<g>
	<path style="fill:#00AEEF;" d="M329.764,424.357C205.79,433.325,95.44,393.59,57.286,326.237l250.226-52.315L329.764,424.357z"/>
</g>
</svg>
