<svg id="Layer_1" data-name="Layer 1" xmlns="http://www.w3.org/2000/svg" viewBox="0 0 640 640"><defs><style>.cls-1{fill:none;stroke:#0b4051;}.cls-1,.cls-2,.cls-4{stroke-miterlimit:10;}.cls-2{fill:#fff;}.cls-2,.cls-4{stroke:#231f20;}.cls-3,.cls-4,.cls-8,.cls-9{fill:#0b4051;}.cls-5{fill:#1c7aa2;}.cls-6{fill:#3d5767;}.cls-7{fill:#647382;}.cls-8{font-size:32.06px;font-family:ContinuumBold, Continuum Bold;}.cls-9{font-size:24px;font-family:20thCenturyFont, "20th Century Font";}.cls-10{letter-spacing:-0.03em;}</style></defs><title>roadmap</title><line class="cls-1" x1="320" y1="421.41" x2="320" y2="379.83"/><line class="cls-1" x1="324.44" y1="421.41" x2="324.44" y2="379.83"/><path class="cls-2" d="M320.45,559H320v-.08A3.88,3.88,0,0,0,320.45,559Z"/><path class="cls-2" d="M324.44,482.2c-.73.05-1.47.08-2.22.08s-1.48,0-2.22-.08Z"/><path class="cls-2" d="M324.44,558.94V559H324A2.87,2.87,0,0,0,324.44,558.94Z"/><path class="cls-3" d="M320,221.73v-31.3a20.59,20.59,0,0,0,4.44,0v31.3"/><path class="cls-4" d="M320,327.2V300.72c.73.07,1.47.11,2.22.11s1.5,0,2.22-.11V327.2"/><path class="cls-3" d="M320,421.33v-41.4a15.48,15.48,0,0,0,4.44,0v41.4"/><path class="cls-1" d="M320,190.8a20.41,20.41,0,0,1,0-40.58"/><circle class="cls-5" cx="322.35" cy="170.51" r="17.01"/><path class="cls-2" d="M324.44,94.48h0Z"/><path class="cls-2" d="M324.43,94.48H320a8.84,8.84,0,0,1,2.2-.28A9,9,0,0,1,324.43,94.48Z"/><path class="cls-6" d="M331.1,103.15a9,9,0,0,1-6.66,8.67v38.91a20.59,20.59,0,0,0-4.44,0V111.82a9,9,0,0,1,0-17.34h4.44A8.93,8.93,0,0,1,331.1,103.15Z"/><path class="cls-2" d="M324.44,94.48h0Z"/><path class="cls-2" d="M324,559a10.58,10.58,0,0,1-3.55,0Z"/><path class="cls-3" d="M333.32,548.07a11.09,11.09,0,0,1-8.88,10.87,2.87,2.87,0,0,1-.44.08h-3.55a3.88,3.88,0,0,1-.45-.08,11.09,11.09,0,0,1,0-21.73v-55c.74.05,1.48.08,2.22.08s1.49,0,2.22-.08v55A11.09,11.09,0,0,1,333.32,548.07Z"/><circle class="cls-3" cx="321.39" cy="260.95" r="35.13"/><path class="cls-1" d="M324.44,379.83c-.73.06-1.47.1-2.22.1s-1.48,0-2.22-.1a26.62,26.62,0,0,1,0-53.05c.74-.07,1.47-.1,2.22-.1s1.49,0,2.22.1v0H320V300.3c.74,0,1.48.07,2.22.07s1.49,0,2.22-.07a39.35,39.35,0,0,0,0-78.57q-1.1-.06-2.22-.06t-2.22.06"/><circle class="cls-6" cx="321.73" cy="353.59" r="22.25"/><path class="cls-1" d="M320,421.41c.74-.06,1.48-.08,2.22-.08s1.49,0,2.22.08a30.48,30.48,0,0,1,0,60.79c-.73.05-1.47.08-2.22.08s-1.48,0-2.22-.08"/><circle class="cls-7" cx="321.81" cy="451.95" r="26.67"/><text class="cls-8" transform="translate(231.09 72.74)">FAIR LAUNCH</text><text class="cls-9" transform="translate(175.95 179.6)">DEX LISTING</text><text class="cls-9" transform="translate(103.81 362.17)">CHARITY FUNDING</text><text class="cls-9" transform="translate(362.38 457.32)">EXCHANGE LISTING</text><text class="cls-9" transform="translate(368.66 267.03)">PROJECT L<tspan class="cls-10" x="106.15" y="0">A</tspan><tspan x="119.28" y="0">UNCH</tspan></text><text class="cls-8" transform="translate(210.09 600.32)">PROJECT PHASE II</text></svg>